<svg width="1500" height="1500" xmlns="http://www.w3.org/2000/svg" version="1.1">

 <g>
  <title>Layer 1</title>
  <path id="svg_5" d="m592.30435,642.4406c-7.81736,0.32075 -39.51199,-7.65326 -38.2439,11.47242c1.27554,19.13314 3.81917,396.41032 -7.63088,411.70191c-11.47242,15.30651 150.15599,9.00339 152.54297,3.2821c1.43965,-9.32414 -28.2708,-389.48807 -21.89309,-411.78396c6.37025,-22.32573 -76.98012,-15.00068 -84.7751,-14.67247m-196.61259,-17.10421s21.34856,138.9148 137.65418,232.78281c-29.62839,-140.06354 -118.86417,-231.82802 -137.65418,-232.78281m281.48467,-21.99006c-3.59539,-14.82912 -14.3368,-247.41798 -17.08929,-330.12685c0.14919,-5.31849 0.33567,-15.78391 0.58929,-24.85443c0.71609,-25.57053 -5.58703,-21.05764 -9.56284,-21.05764l-28.46474,0c-20.48328,0 -43.33861,-3.31939 -50.96949,-4.13246c-24.20547,-2.55109 -15.23192,50.35037 -14.02351,57.83952c1.19349,7.49661 -3.19259,285.9155 -5.72129,307.82351c-2.566,22.03481 3.58047,30.06849 61.33794,30.69508c57.79476,0.63404 66.06714,-7.24299 63.90394,-16.18671m-76.68175,-576.78399c-9.64489,0.29837 -33.14173,-8.9288 -33.14173,25.48848s-2.21542,95.60603 -8.75723,123.65305c-6.53436,28.04702 -3.97581,25.49593 36.81171,25.49593s56.07166,0.05967 56.07166,0.05967s16.58205,6.30312 6.37771,-38.29612c-10.19688,-44.62162 -8.92134,-76.47289 -8.92134,-99.41774c0,-22.95231 1.26808,-38.02012 -16.58205,-38.02012c-17.84268,-0.01492 -22.21384,0.71609 -31.85127,1.03684m-80.6874,847.32584s-103.57257,-88.58681 -248.23105,-68.81963c97.50815,69.45367 178.43425,83.46972 248.23105,68.81963m13.53865,26.76402s-139.56376,65.95525 -179.72471,186.40825c57.36212,-28.6736 144.35264,-46.84449 179.72471,-186.40825m391.58414,-659.43318c-4.99774,-31.06058 1.44711,-137.13203 2.23033,-161.15848c0.79069,-24.04137 3.28956,-29.48667 3.28956,-29.48667s8.01876,-21.75136 -9.00339,-22.75091c-17.02961,-1.00701 -28.56917,-2.13336 -28.56917,-2.13336s-25.37659,-4.26673 -25.37659,31.80651s2.67789,133.96928 -9.35398,180.7168l-4.6024,26.57008s-4.48305,10.77125 14.79928,10.77125s30.55335,0.25362 43.82347,0c13.27758,-0.25362 17.77554,-3.28956 12.76289,-34.33522m41.16795,91.93604c32.98509,-49.70887 83.64875,-88.42271 83.64875,-88.42271s-18.63337,74.08591 -41.81691,111.36756s-83.41005,85.55833 -83.41005,85.55833s8.58567,-58.78685 41.57822,-108.50318m-41.60059,128.12863s21.64693,-35.69282 107.07845,-61.18129c85.40168,-25.49593 153.58727,0 153.58727,0s-77.74843,54.80358 -133.84247,61.18129c-56.07166,6.37771 -126.82325,0 -126.82325,0m-45.39738,718.77948s21.64693,-3.79679 21.64693,43.35353c0,47.16524 -8.9288,184.81942 0,219.22178c8.93626,34.41727 5.10217,30.16547 -33.13427,26.55516c-38.22152,-3.61031 -72.6388,-4.02803 -80.29205,0c-7.63834,4.04295 -20.40122,-1.0443 -11.47242,-34.19349c8.91388,-33.14919 16.89535,-220.89266 15.29159,-240.91346c-1.60375,-20.01334 13.0538,-20.02826 30.90394,-17.46971c17.85014,2.54363 57.06375,3.45366 57.06375,3.45366m-67.6709,-271.44443s-2.86438,-32.22424 18.31262,-29.49413c21.18445,2.73757 45.39738,0 45.39738,0s33.14919,0.18648 29.33002,38.42293c-3.81917,38.23644 -14.92609,174.62254 -8.73486,200.11101c6.19123,25.49593 17.64128,31.87365 -28.2335,25.49593c-45.8897,-6.36279 -77.76335,24.16818 -68.81963,-38.90778c8.9288,-63.07596 14.02351,-162.47877 12.74797,-195.62051m35.6406,-478.18677s6.22107,-91.78686 4.78888,-111.36756c-1.43219,-19.61054 -4.78888,-27.74119 18.17089,-25.33929c22.92993,2.38698 41.10082,-0.39534 41.10082,-0.39534s13.85941,-2.46157 9.5703,16.66411c-4.31894,19.1033 -8.13065,185.93086 -6.68355,209.8305c1.43219,23.89964 2.86438,28.19621 2.86438,28.19621s2.8793,13.38201 -21.99752,10.51763c-24.85443,-2.86438 -40.62342,0.39534 -40.62342,0.39534s-19.12568,6.2882 -14.82912,-17.61144c4.29656,-23.89964 7.63834,-110.89016 7.63834,-110.89016m-10.80109,279.25433s5.96745,-74.08591 3.59539,-92.66706c-2.38698,-18.57369 -11.12184,-31.90349 17.07437,-29.03911l45.10647,0.37297s13.72514,-5.4826 9.40619,24.16072c-4.29656,29.64331 -5.87048,176.73352 -5.87048,176.73352l0,41.60059s10.04024,21.51266 -17.67857,18.17089c-27.71881,-3.35669 -48.73916,0.35059 -48.73916,0.35059s-22.72107,5.83318 -18.40959,-20.43852c4.26673,-26.26424 15.51537,-119.24459 15.51537,-119.24459m-107.27239,758.4332c-0.99955,-1.95434 -2.1632,-6.19123 -3.51334,-9.21225c-24.85443,-55.43762 -19.11076,-327.41166 -17.20118,-342.70326c1.90958,-15.29159 -19.13314,-10.74141 -19.13314,-10.74141s-124.98826,-3.22988 -137.65418,0.35059c-12.66591,3.59539 0,91.95842 0,91.95842c4.9679,37.53527 -1.90958,153.04274 -5.67654,221.86237c-0.29091,5.10963 -0.44756,9.72695 -0.57437,14.05335l-0.14919,-0.04476s-3.62523,50.72333 15.23192,50.72333l154.46001,0c22.73599,0 19.55832,-10.78617 14.20999,-16.24639" fill="#d69723"/>
 </g>
</svg>