<?xml version="1.0" encoding="UTF-8" standalone="no"?>
<svg
   width="456"
   height="456"
   viewBox="0 0 456 456"
   version="1.1"
   id="svg12"
   sodipodi:docname="appiconv2.svg"
   xml:space="preserve"
   inkscape:version="1.2 (dc2aedaf03, 2022-05-15)"
   xmlns:inkscape="http://www.inkscape.org/namespaces/inkscape"
   xmlns:sodipodi="http://sodipodi.sourceforge.net/DTD/sodipodi-0.dtd"
   xmlns="http://www.w3.org/2000/svg"
   xmlns:svg="http://www.w3.org/2000/svg"><defs
     id="defs16" /><sodipodi:namedview
     id="namedview14"
     pagecolor="#ffffff"
     bordercolor="#000000"
     borderopacity="0.25"
     inkscape:showpageshadow="2"
     inkscape:pageopacity="0.0"
     inkscape:pagecheckerboard="0"
     inkscape:deskcolor="#d1d1d1"
     showgrid="false"
     inkscape:zoom="0.79627047"
     inkscape:cx="-39.559423"
     inkscape:cy="38.931495"
     inkscape:window-width="2153"
     inkscape:window-height="1259"
     inkscape:window-x="1183"
     inkscape:window-y="36"
     inkscape:window-maximized="0"
     inkscape:current-layer="svg12" /><rect
     x="0"
     y="0"
     width="456"
     height="456"
     fill="#EADFDF"
     id="rect10" /><g
     id="g1166"
     transform="matrix(0.28367209,0,0,0.28367209,21.253611,14.332694)"><title
       id="title1163">Layer 1</title><path
       id="svg_5"
       d="m 592.30435,642.4406 c -7.81736,0.32075 -39.51199,-7.65326 -38.2439,11.47242 1.27554,19.13314 3.81917,396.41028 -7.63088,411.70188 -11.47242,15.3065 150.15599,9.0034 152.54297,3.2821 1.43965,-9.3241 -28.2708,-389.48804 -21.89309,-411.78393 6.37025,-22.32573 -76.98012,-15.00068 -84.7751,-14.67247 M 395.69176,625.33639 c 0,0 21.34856,138.9148 137.65418,232.78281 C 503.71755,718.05566 414.48177,626.29118 395.69176,625.33639 m 281.48467,-21.99006 c -3.59539,-14.82912 -14.3368,-247.41798 -17.08929,-330.12685 0.14919,-5.31849 0.33567,-15.78391 0.58929,-24.85443 0.71609,-25.57053 -5.58703,-21.05764 -9.56284,-21.05764 h -28.46474 c -20.48328,0 -43.33861,-3.31939 -50.96949,-4.13246 -24.20547,-2.55109 -15.23192,50.35037 -14.02351,57.83952 1.19349,7.49661 -3.19259,285.9155 -5.72129,307.82351 -2.566,22.03481 3.58047,30.06849 61.33794,30.69508 57.79476,0.63404 66.06714,-7.24299 63.90394,-16.18671 M 600.49469,26.56236 c -9.64489,0.29837 -33.14173,-8.9288 -33.14173,25.48848 0,34.41728 -2.21542,95.60603 -8.75723,123.65305 -6.53436,28.04702 -3.97581,25.49593 36.81171,25.49593 40.78752,0 56.07166,0.0597 56.07166,0.0597 0,0 16.58205,6.30312 6.37771,-38.29612 -10.19688,-44.62162 -8.92134,-76.47289 -8.92134,-99.41774 0,-22.95231 1.26808,-38.02012 -16.58205,-38.02012 -17.84268,-0.01492 -22.21384,0.71609 -31.85127,1.03684 m -80.6874,847.32584 c 0,0 -103.57257,-88.58681 -248.23105,-68.81963 97.50815,69.45367 178.43425,83.46972 248.23105,68.81963 m 13.53865,26.76402 c 0,0 -139.56376,65.95525 -179.72471,186.40826 57.36212,-28.6736 144.35264,-46.8445 179.72471,-186.40826 M 924.93754,241.21903 c -4.99774,-31.06058 1.44711,-137.13203 2.23033,-161.15848 0.79069,-24.04137 3.28956,-29.48667 3.28956,-29.48667 0,0 8.01876,-21.75136 -9.00339,-22.75091 -17.02961,-1.00701 -28.56917,-2.13336 -28.56917,-2.13336 0,0 -25.37659,-4.26673 -25.37659,31.80651 0,36.07324 2.67789,133.96928 -9.35398,180.7168 l -4.6024,26.57008 c 0,0 -4.48305,10.77125 14.79928,10.77125 19.28233,0 30.55335,0.25362 43.82347,0 13.27758,-0.25362 17.77554,-3.28956 12.76289,-34.33522 m 41.16795,91.93604 c 32.98509,-49.70887 83.64871,-88.42271 83.64871,-88.42271 0,0 -18.6333,74.08591 -41.8169,111.36756 -23.18351,37.28165 -83.41002,85.55833 -83.41002,85.55833 0,0 8.58567,-58.78685 41.57822,-108.50318 M 924.50491,461.2837 c 0,0 21.64693,-35.69282 107.07849,-61.18129 85.4016,-25.49593 153.5872,0 153.5872,0 0,0 -77.7484,54.80358 -133.8424,61.18129 -56.0717,6.37771 -126.82329,0 -126.82329,0 m -45.39738,718.7795 c 0,0 21.64693,-3.7968 21.64693,43.3535 0,47.1653 -8.9288,184.8194 0,219.2218 8.93626,34.4173 5.10217,30.1655 -33.13427,26.5552 -38.22152,-3.6104 -72.6388,-4.0281 -80.29205,0 -7.63834,4.0429 -20.40122,-1.0443 -11.47242,-34.1935 8.91388,-33.1492 16.89535,-220.8927 15.29159,-240.9135 -1.60375,-20.0133 13.0538,-20.0283 30.90394,-17.4697 17.85014,2.5436 57.06375,3.4536 57.06375,3.4536 M 811.4441,908.62622 c 0,0 -2.86438,-32.22424 18.31262,-29.49413 21.18445,2.73757 45.39738,0 45.39738,0 0,0 33.14919,0.18648 29.33002,38.42293 -3.81917,38.23644 -14.92609,174.62258 -8.73486,200.11098 6.19123,25.496 17.64128,31.8737 -28.2335,25.496 -45.8897,-6.3628 -77.76335,24.1681 -68.81963,-38.9078 8.9288,-63.076 14.02351,-162.47879 12.74797,-195.62053 M 847.0847,430.4469 c 0,0 6.22107,-91.78686 4.78888,-111.36756 -1.43219,-19.61054 -4.78888,-27.74119 18.17089,-25.33929 22.92993,2.38698 41.10082,-0.39534 41.10082,-0.39534 0,0 13.85941,-2.46157 9.5703,16.66411 -4.31894,19.1033 -8.13065,185.93086 -6.68355,209.8305 1.43219,23.89964 2.86438,28.19621 2.86438,28.19621 0,0 2.8793,13.38201 -21.99752,10.51763 -24.85443,-2.86438 -40.62342,0.39534 -40.62342,0.39534 0,0 -19.12568,6.2882 -14.82912,-17.61144 4.29656,-23.89964 7.63834,-110.89016 7.63834,-110.89016 m -10.80109,279.25433 c 0,0 5.96745,-74.08591 3.59539,-92.66706 -2.38698,-18.57369 -11.12184,-31.90349 17.07437,-29.03911 l 45.10647,0.37297 c 0,0 13.72514,-5.4826 9.40619,24.16072 -4.29656,29.64331 -5.87048,176.73352 -5.87048,176.73352 v 41.60059 c 0,0 10.04024,21.51266 -17.67857,18.17089 -27.71881,-3.35669 -48.73916,0.35059 -48.73916,0.35059 0,0 -22.72107,5.83318 -18.40959,-20.43852 4.26673,-26.26424 15.51537,-119.24459 15.51537,-119.24459 M 729.01121,1468.1344 c -0.99955,-1.9543 -2.1632,-6.1912 -3.51334,-9.2122 -24.85443,-55.4376 -19.11076,-327.4117 -17.20118,-342.7033 1.90958,-15.2916 -19.13314,-10.7414 -19.13314,-10.7414 0,0 -124.98826,-3.2299 -137.65418,0.3506 -12.66591,3.5954 0,91.9584 0,91.9584 4.9679,37.5353 -1.90958,153.0428 -5.67654,221.8624 -0.29091,5.1096 -0.44756,9.7269 -0.57437,14.0533 l -0.14919,-0.045 c 0,0 -3.62523,50.7233 15.23192,50.7233 H 714.8012 c 22.73599,0 19.55832,-10.7862 14.20999,-16.2464"
       fill="#d69723" /></g></svg>
