<svg xmlns="http://www.w3.org/2000/svg" version="1.1" xmlns:xlink="http://www.w3.org/1999/xlink" width="1500" height="1500" viewBox="0 0 1500 1500"><rect width="1500" height="1500" x="0" y="0" id="background" stroke="transparent" fill="#1e1e1e"></rect><svg xml:space="preserve" width="1000" height="1000" data-version="2" data-id="lg_7awuvSBSVnidPbpoA3" viewBox="0 0 335 357" x="250" y="250"><rect width="100%" height="100%" fill="transparent"></rect><path fill="#636363" stroke="#636363" stroke-width="3.29" d="M15.286 224.628H320.61"></path><path fill="#636363" d="M147.913 86.007c-1.048.043-5.297-1.026-5.127 1.538.171 2.565.512 53.143-1.023 55.193-1.538 2.052 20.13 1.207 20.45.44.193-1.25-3.79-52.215-2.935-55.204.854-2.993-10.32-2.011-11.365-1.967m-26.358-2.293s2.862 18.623 18.454 31.207c-3.972-18.777-15.935-31.079-18.454-31.207m37.736-2.948c-.482-1.988-1.922-33.169-2.291-44.257.02-.713.045-2.116.079-3.332.096-3.428-.749-2.823-1.282-2.823h-3.816c-2.746 0-5.81-.445-6.833-.554-3.245-.342-2.042 6.75-1.88 7.754.16 1.005-.428 38.33-.767 41.267-.344 2.954.48 4.031 8.223 4.115 7.748.085 8.857-.971 8.567-2.17m-10.28-77.324c-1.293.04-4.443-1.197-4.443 3.417s-.297 12.817-1.174 16.577c-.876 3.76-.533 3.418 4.935 3.418s7.517.008 7.517.008 2.223.845.855-5.134c-1.367-5.982-1.196-10.252-1.196-13.328 0-3.077.17-5.097-2.223-5.097-2.392-.002-2.978.096-4.27.139m-10.817 113.593s-13.885-11.876-33.278-9.226c13.072 9.311 23.921 11.19 33.278 9.226m1.815 3.588s-18.71 8.842-24.094 24.99c7.69-3.844 19.352-6.28 24.094-24.99m52.496-88.404c-.67-4.164.194-18.384.299-21.605.106-3.223.441-3.953.441-3.953s1.075-2.916-1.207-3.05c-2.283-.135-3.83-.286-3.83-.286s-3.402-.572-3.402 4.264.359 17.96-1.254 24.227l-.617 3.562s-.601 1.444 1.984 1.444 4.096.034 5.875 0c1.78-.034 2.383-.441 1.711-4.603m5.519 12.325c4.422-6.664 11.214-11.854 11.214-11.854s-2.498 9.932-5.606 14.93-11.182 11.47-11.182 11.47 1.151-7.881 5.574-14.546m-5.577 17.177s2.902-4.785 14.355-8.202c11.449-3.418 20.59 0 20.59 0s-10.423 7.347-17.943 8.202c-7.517.855-17.002 0-17.002 0m-6.086 96.36s2.902-.509 2.902 5.812c0 6.323-1.197 24.777 0 29.389 1.198 4.614.684 4.044-4.442 3.56-5.124-.484-9.738-.54-10.764 0-1.024.542-2.735-.14-1.538-4.584 1.195-4.444 2.265-29.613 2.05-32.297-.215-2.683 1.75-2.685 4.143-2.342 2.393.341 7.65.463 7.65.463m-9.072-36.39s-.384-4.32 2.455-3.954c2.84.367 6.086 0 6.086 0s4.444.025 3.932 5.151c-.512 5.126-2.001 23.41-1.171 26.827.83 3.418 2.365 4.273-3.785 3.418-6.152-.853-10.425 3.24-9.226-5.216 1.197-8.456 1.88-21.782 1.709-26.225m4.778-64.106s.834-12.305.642-14.93c-.192-2.629-.642-3.719 2.436-3.397 3.074.32 5.51-.053 5.51-.053s1.858-.33 1.283 2.234c-.579 2.561-1.09 24.926-.896 28.13.192 3.204.384 3.78.384 3.78s.386 1.794-2.949 1.41c-3.332-.384-5.446.053-5.446.053s-2.564.843-1.988-2.361c.576-3.204 1.024-14.866 1.024-14.866m-1.448 37.437s.8-9.932.482-12.423c-.32-2.49-1.491-4.277 2.289-3.893l6.047.05s1.84-.735 1.261 3.239c-.576 3.974-.787 23.693-.787 23.693v5.577s1.346 2.884-2.37 2.436c-3.716-.45-6.534.047-6.534.047s-3.046.782-2.468-2.74c.572-3.521 2.08-15.986 2.08-15.986M166.24 196.7c-.134-.262-.29-.83-.471-1.235-3.332-7.432-2.562-43.893-2.306-45.943.256-2.05-2.565-1.44-2.565-1.44s-16.756-.433-18.454.047c-1.698.482 0 12.328 0 12.328.666 5.032-.256 20.517-.761 29.743-.039.685-.06 1.304-.077 1.884l-.02-.006s-.486 6.8 2.042 6.8h20.707c3.048 0 2.622-1.446 1.905-2.178"></path><path fill="#aaaaaa" d="m3.6 253.03.06-.93h13.27q13.39 0 13.39 10.48 0 4.03-5.33 8.8 7.87 1.93 7.87 11.29 0 7.31-3.69 10.07-3.69 2.76-11.31 2.76h-1.8l-12.46.06.06-.86 3.22-.44q.62-.06.75-.8v-39.19q-.13-.8-.75-.87Zm15.5 18.73h-7.26v22.81h5.71q11.1 0 11.1-11.65 0-5.96-2.39-8.56-2.39-2.6-7.16-2.6m.31-.93q2.29 0 3.97.24 2.72-4.27 2.72-8.12 0-9.92-9.48-9.92h-4.78v17.8Z"></path><rect width="29.26" height="43.46" x="-14.63" y="-21.73" fill="none" rx="0" ry="0" transform="translate(18.73 274.33)"></rect><path fill="#aaaaaa" d="m34.41 295.56.06-.86 3.23-.44q.43-.06.74-.8l13.39-41.36h4.1l14.26 42.22 4.27.25q0 .06-.06.93l-12.4.06q0-.55.06-.86l3.23-.44q.49-.06.49-.74l-3.41-10.11H43.03l-3.29 10.79 7.2.37q0 .06-.07.93Zm17.86-42.28-8.87 28.89h18.54Z"></path><rect width="40.05" height="43.46" x="-20.02" y="-21.73" fill="none" rx="0" ry="0" transform="translate(54.94 274.33)"></rect><path fill="#aaaaaa" d="m76.14 253.03.06-.93h8.18l14.82 31.44 14.57-31.44h8.19q0 .13.06.44t0 .49l-3.29.37q-.62.07-.74.81v40.11l4.59.25q0 .06-.07.93l-12.46.06.06-.86 3.23-.44q.62-.06.74-.74v-39.19L99.95 284.9l-1.24 2.48h-1.43l-15.69-33.11v39.93l7.07.37q0 .06-.06.93l-12.46.06.06-.86 3.22-.44q.62-.06.75-.8v-39.25q-.13-.74-.75-.81Z"></path><rect width="46.44" height="43.46" x="-23.22" y="-21.73" fill="none" rx="0" ry="0" transform="translate(99.86 274.33)"></rect><path fill="#aaaaaa" d="m126.67 253.03.06-.93H140q13.39 0 13.39 10.48 0 4.03-5.33 8.8 7.87 1.93 7.87 11.29 0 7.31-3.69 10.07-3.69 2.76-11.31 2.76h-1.8l-12.46.06.06-.86 3.22-.44q.62-.06.75-.8v-39.19q-.13-.8-.75-.87Zm15.5 18.73h-7.26v22.81h5.71q11.1 0 11.1-11.65 0-5.96-2.39-8.56-2.39-2.6-7.16-2.6m.31-.93q2.29 0 3.97.24 2.72-4.27 2.72-8.12 0-9.92-9.48-9.92h-4.78v17.8Z"></path><rect width="29.26" height="43.46" x="-14.63" y="-21.73" fill="none" rx="0" ry="0" transform="translate(141.8 274.33)"></rect><path fill="#aaaaaa" d="M172.67 252.1q0 .06.06.93l-4.21.37v23.44q0 10.79 3.78 14.32 1.8 1.74 3.66 2.39 1.86.65 4.37.65t4.56-.68q2.04-.68 3.96-2.48 4.1-3.72 4.1-14.2V254.4q-.13-.81-.75-.87l-4.46-.44q-.06-.37-.06-.93l11.78-.06q0 .06.06.93l-5.15.56v23.31q0 18.85-14.07 18.85-3.41 0-5.99-.71-2.57-.72-4.99-2.64-5.02-3.9-5.02-15.5v-22.69q-.25-.74-.74-.81l-3.23-.31q-.06-.37-.06-.93Z"></path><rect width="39.25" height="43.65" x="-19.63" y="-21.82" fill="none" rx="0" ry="0" transform="translate(180.4 274.43)"></rect><path fill="#aaaaaa" d="m202.18 253.03.07-.93h8.18l14.82 31.44 14.57-31.44H248q0 .13.06.44.07.31 0 .49l-3.28.37q-.62.07-.75.81v40.11l4.59.25q0 .06-.06.93l-12.46.06.06-.86 3.22-.44q.62-.06.75-.74v-39.19l-14.14 30.57-1.24 2.48h-1.42l-15.69-33.11v39.93l7.07.37q0 .06-.06.93l-12.47.06.07-.86 3.22-.44q.62-.06.74-.8v-39.25q-.12-.74-.74-.81Z"></path><rect width="46.44" height="43.46" x="-23.22" y="-21.73" fill="none" rx="0" ry="0" transform="translate(225.9 274.33)"></rect><path fill="#aaaaaa" d="m250.48 295.56.06-.86 3.23-.44q.43-.06.74-.8l13.39-41.36h4.1l14.26 42.22 4.27.25q0 .06-.06.93l-12.4.06q0-.55.06-.86l3.23-.44q.49-.06.49-.74l-3.41-10.11H259.1l-3.29 10.79 7.2.37q0 .06-.07.93Zm17.86-42.28-8.87 28.89h18.54Z"></path><rect width="40.05" height="43.46" x="-20.02" y="-21.73" fill="none" rx="0" ry="0" transform="translate(271 274.33)"></rect><path fill="#aaaaaa" d="m292.64 253.03.06-.93h8.5l24.12 41.67-.31-39.5q-.25-.62-.69-.68l-5.7-.5q-.06-.37-.06-.93l11.78-.06q0 .06.06.93l-3.97.44v42.03h-4.52l-24.12-41.66.31 40.36 7.07.37q0 .06-.07.93l-12.46.06.06-.86 3.23-.44q.62-.06.74-.8v-39.25q-.12-.74-.74-.81Z"></path><rect width="37.76" height="43.46" x="-18.88" y="-21.73" fill="none" rx="0" ry="0" transform="translate(312.02 274.33)"></rect><path fill="#636363" d="M18.94 324.22H9.63v8.41h8.64l-.16 1.92H9.63v8.23h10.11l-.16 1.92H7.46v-22.4H19.1Z"></path><rect width="12.28" height="22.4" x="-6.14" y="-11.2" fill="none" rx="0" ry="0" transform="translate(14.1 334)"></rect><path fill="#636363" d="M22.02 330.42q3.48-1.72 6.11-1.82 2.08 0 3.21.53 1.14.53 1.84 1.47.71.94.71 2.64v11.46h-2.08v-1.22q-4.39 1.34-5.63 1.34h-.1q-2.88 0-3.94-1.76-.38-.64-.43-1.24-.05-.61-.05-1.03 0-1.15.9-2.06.9-.91 2.14-1.23 2.12-.55 7.11-.96v-2.6q0-3.48-3.65-3.48-2.56 0-5.57 1.5Zm1.6 10.63q0 2.3 3.16 2.3 2.53 0 5.03-1.09v-4.57q-4.99.7-6.18 1.09-2.01.64-2.01 2.27"></path><rect width="12.23" height="16.22" x="-6.12" y="-8.11" fill="none" rx="0" ry="0" transform="translate(28.27 337.21)"></rect><path fill="#636363" d="M45.92 330.81q-1.15-.39-3.14-.39-1.98 0-3.07.71-1.09.7-1.09 1.74t.64 1.52q.64.48 1.6.82.96.33 2.1.65 1.14.32 2.1.84 2.24 1.15 2.24 3.42t-1.56 3.49q-1.55 1.21-4.52 1.21-1.51 0-2.9-.3t-2.13-.85l.71-1.69q.73.64 2.97.92.71.1 1.44.1 1.67 0 2.79-.69t1.12-2.09q0-.96-.64-1.51-.64-.54-1.6-.91-.96-.37-2.1-.66-1.14-.28-2.1-.75-.96-.46-1.6-1.21-.64-.76-.64-2.04 0-2.08 1.6-3.32 1.6-1.25 4.29-1.25.67 0 1.38.08.7.08 1.28.14l1.34.23Z"></path><rect width="11.11" height="16.25" x="-5.55" y="-8.13" fill="none" rx="0" ry="0" transform="translate(42.24 337.2)"></rect><path fill="#636363" d="m48.83 328.7 2.34-.16 4.77 14.65 6.14-14.49h2.24l-10.62 24h-1.96l3.52-8h-.73Z"></path><rect width="15.49" height="24.16" x="-7.75" y="-12.08" fill="none" rx="0" ry="0" transform="translate(57.08 341.12)"></rect><path fill="#636363" d="M89.28 324.22h-9.31v8.41h8.64l-.16 1.92h-8.48v10.15h-2.18v-22.4h11.65Z"></path><rect width="11.65" height="22.4" x="-5.83" y="-11.2" fill="none" rx="0" ry="0" transform="translate(84.11 334)"></rect><path fill="#636363" d="M94.37 328.54v16.16h-2.08v-16Zm-1.12-4.13h-.32q-.32 0-.66-.42-.33-.41-.33-1.05 0-.64.36-1.04.37-.4 1.01-.4t1.04.4q.4.4.4 1.1 0 .7-.43 1.06-.43.35-1.07.35"></path><rect width="2.81" height="23.2" x="-1.41" y="-11.6" fill="none" rx="0" ry="0" transform="translate(93.84 333.6)"></rect><path fill="#636363" d="M98.91 344.7v-23.84l2.08-.16v24Z"></path><rect width="2.08" height="24" x="-1.04" y="-12" fill="none" rx="0" ry="0" transform="translate(100.45 333.2)"></rect><path fill="#636363" d="M104.51 344.7v-23.84l2.08-.16v24Z"></path><rect width="2.08" height="24" x="-1.04" y="-12" fill="none" rx="0" ry="0" transform="translate(106.05 333.2)"></rect><path fill="#636363" d="M109.89 330.42q3.49-1.72 6.11-1.82 2.08 0 3.22.53 1.13.53 1.84 1.47.7.94.7 2.64v11.46h-2.08v-1.22q-4.38 1.34-5.63 1.34h-.1q-2.88 0-3.93-1.76-.39-.64-.44-1.24-.04-.61-.04-1.03 0-1.15.89-2.06.9-.91 2.15-1.23 2.11-.55 7.1-.96v-2.6q0-3.48-3.65-3.48-2.56 0-5.57 1.5Zm1.6 10.63q0 2.3 3.17 2.3 2.52 0 5.02-1.09v-4.57q-4.99.7-6.18 1.09-2.01.64-2.01 2.27"></path><rect width="12.22" height="16.22" x="-6.11" y="-8.11" fill="none" rx="0" ry="0" transform="translate(116.15 337.21)"></rect><path fill="#636363" d="M130.91 330.46q-1.79.09-3.87 1.18v13.06h-2.08v-16l2.08-.16v1.79q2.14-1.63 4.16-1.73 3.39 0 4.67 1.7 2.43-1.6 4.71-1.7 1.95 0 3 .48 1.06.48 1.75 1.36.69.88.69 2.48v11.78h-2.08v-11.24q0-1.18-.55-1.82-.99-1.18-2.81-1.18-1.92 0-4.1 1.15.16.64.16 1.31v11.78h-2.08v-11.24q0-1.18-.51-1.82-1.03-1.18-3.14-1.18"></path><rect width="21.06" height="16.16" x="-10.53" y="-8.08" fill="none" rx="0" ry="0" transform="translate(135.99 337.12)"></rect><path fill="#636363" d="M151.78 337.34q0 5.63 5.37 5.63 2.27 0 4.16-.61.48-.16.67-.26l.48 1.7q-1.12.67-4.06.96-.83.06-1.76.06-2.69 0-4.48-1.34-2.46-1.82-2.46-6.08t2.22-6.54q2.22-2.29 5.39-2.29 3.17 0 4.77 2.05 1.22 1.63 1.22 4.32 0 .64-.07 1.34h-11.42q-.03.26-.03.54Zm5.66-6.79q-1.98 0-3.39 1.2-1.41 1.2-1.95 3.09h9.31q-.16-3.55-2.75-4.13-.58-.16-1.22-.16"></path><rect width="13.6" height="16.25" x="-6.8" y="-8.13" fill="none" rx="0" ry="0" transform="translate(157 337.2)"></rect><path fill="#636363" d="M168.13 330.46q2.4-1.76 4.54-1.86 1.95 0 3.01.48 1.06.48 1.74 1.36.69.88.69 2.48v11.78h-2.08v-11.24q0-1.18-.51-1.82-1.02-1.18-3.14-1.18-2.01.09-4.25 1.31v12.93h-2.08v-16l2.08-.16Z"></path><rect width="12.06" height="16.16" x="-6.03" y="-8.08" fill="none" rx="0" ry="0" transform="translate(172.58 337.12)"></rect><path fill="#636363" d="M189.28 344.12q-.58.58-2.08.58-2.11 0-2.85-1.09-1.25-1.19-1.25-3.2v-9.86h-1.79l.29-1.85h1.5v-3.17l2.08-.19v3.36h3.72v1.85h-3.72v10.37q0 1.86 1.92 1.86.84 0 1.8-.39Z"></path><rect width="7.97" height="19.36" x="-3.98" y="-9.68" fill="none" rx="0" ry="0" transform="translate(185.8 335.52)"></rect><path fill="#636363" d="M208.48 344.7h-6.02v-1.54l1.92-.22v-18.85l-1.76-.23v-1.56h5.7v1.56l-1.76.23v18.85l1.92.22Z"></path><rect width="6.02" height="22.4" x="-3.01" y="-11.2" fill="none" rx="0" ry="0" transform="translate(205.97 334)"></rect><path fill="#636363" d="M214.56 330.46q2.4-1.76 4.54-1.86 1.96 0 3.01.48 1.06.48 1.75 1.36.68.88.68 2.48v11.78h-2.08v-11.24q0-1.18-.51-1.82-1.02-1.18-3.13-1.18-2.02.09-4.26 1.31v12.93h-2.08v-16l2.08-.16Z"></path><rect width="12.06" height="16.16" x="-6.03" y="-8.08" fill="none" rx="0" ry="0" transform="translate(219.01 337.12)"></rect><path fill="#636363" d="m226.98 328.7 2.33-.16 4.64 13.69 5.03-13.53 2.3-.16-6.46 16.16h-1.92Z"></path><rect width="14.3" height="16.16" x="-7.15" y="-8.08" fill="none" rx="0" ry="0" transform="translate(234.63 337.12)"></rect><path fill="#636363" d="M244.29 337.34q0 5.63 5.37 5.63 2.28 0 4.16-.61.48-.16.68-.26l.48 1.7q-1.12.67-4.07.96-.83.06-1.76.06-2.69 0-4.48-1.34-2.46-1.82-2.46-6.08t2.22-6.54q2.23-2.29 5.39-2.29 3.17 0 4.77 2.05 1.22 1.63 1.22 4.32 0 .64-.07 1.34h-11.42q-.03.26-.03.54Zm5.66-6.79q-1.98 0-3.39 1.2-1.41 1.2-1.95 3.09h9.31q-.16-3.55-2.75-4.13-.58-.16-1.22-.16"></path><rect width="13.6" height="16.25" x="-6.8" y="-8.13" fill="none" rx="0" ry="0" transform="translate(249.51 337.2)"></rect><path fill="#636363" d="M260.64 330.46q2.4-1.76 4.54-1.86 1.96 0 3.01.48 1.06.48 1.75 1.36.68.88.68 2.48v11.78h-2.08v-11.24q0-1.18-.51-1.82-1.02-1.18-3.13-1.18-2.02.09-4.26 1.31v12.93h-2.08v-16l2.08-.16Z"></path><rect width="12.06" height="16.16" x="-6.03" y="-8.08" fill="none" rx="0" ry="0" transform="translate(265.09 337.12)"></rect><path fill="#636363" d="M281.79 344.12q-.57.58-2.08.58-2.11 0-2.85-1.09-1.24-1.19-1.24-3.2v-9.86h-1.8l.29-1.85h1.51v-3.17l2.08-.19v3.36h3.71v1.85h-3.71v10.37q0 1.86 1.92 1.86.83 0 1.79-.39Z"></path><rect width="7.97" height="19.36" x="-3.98" y="-9.68" fill="none" rx="0" ry="0" transform="translate(278.3 335.52)"></rect><path fill="#636363" d="M283.87 340.6q-.57-1.54-.57-3.58 0-3.94 2.2-6.2 2.21-2.25 5.54-2.25 5.22 0 6.85 4.22.61 1.54.61 3.59 0 3.93-2.21 6.19-2.21 2.25-5.54 2.25-5.21 0-6.88-4.22m1.51-3.81v1.47q0 1.48 1.52 3.09 1.52 1.62 3.92 1.62t4-1.71q1.6-1.72 1.6-4.66 0-2.94-1.51-4.56-1.5-1.62-3.92-1.62-2.41 0-4.01 1.72-1.6 1.71-1.6 4.65"></path><rect width="15.2" height="16.25" x="-7.6" y="-8.13" fill="none" rx="0" ry="0" transform="translate(291.4 337.2)"></rect><path fill="#636363" d="M309.44 330.94q-.51-.29-1.09-.29-.57 0-.64.03-1.21 0-2.45.88-1.23.88-2.09 1.97v11.17h-2.08v-16l2.08-.16v3.58q1.18-1.5 2.01-2.11 1.54-1.15 2.95-1.22.19-.03.7-.03t1.44.26Z"></path><rect width="9.18" height="16.16" x="-4.59" y="-8.08" fill="none" rx="0" ry="0" transform="translate(306.18 337.12)"></rect><path fill="#636363" d="m312 328.7 2.34-.16 4.76 14.65 6.15-14.49h2.24l-10.63 24h-1.95l3.52-8h-.73Z"></path><rect width="15.49" height="24.16" x="-7.75" y="-12.08" fill="none" rx="0" ry="0" transform="translate(320.25 341.12)"></rect></svg></svg>